<?xml version="1.0" encoding="UTF-8" standalone="no"?>
<!-- Created with Inkscape (http://www.inkscape.org/) -->

<svg
   width="126.44091mm"
   height="45.870083mm"
   viewBox="0 0 126.44091 45.870083"
   version="1.1"
   id="svg5"
   xml:space="preserve"
   inkscape:version="1.2.2 (b0a8486541, 2022-12-01)"
   sodipodi:docname="humo.svg"
   xmlns:inkscape="http://www.inkscape.org/namespaces/inkscape"
   xmlns:sodipodi="http://sodipodi.sourceforge.net/DTD/sodipodi-0.dtd"
   xmlns="http://www.w3.org/2000/svg"
   xmlns:svg="http://www.w3.org/2000/svg"><sodipodi:namedview
     id="namedview7"
     pagecolor="#ffffff"
     bordercolor="#666666"
     borderopacity="1.0"
     inkscape:showpageshadow="2"
     inkscape:pageopacity="0.0"
     inkscape:pagecheckerboard="0"
     inkscape:deskcolor="#d1d1d1"
     inkscape:document-units="mm"
     showgrid="false"
     inkscape:zoom="0.7786055"
     inkscape:cx="479.70378"
     inkscape:cy="186.23038"
     inkscape:window-width="1920"
     inkscape:window-height="1043"
     inkscape:window-x="0"
     inkscape:window-y="0"
     inkscape:window-maximized="1"
     inkscape:current-layer="layer1" /><defs
     id="defs2" /><g
     inkscape:label="Layer 1"
     inkscape:groupmode="layer"
     id="layer1"><g
       id="g1582"
       transform="translate(-37.027613,-120.84361)"><path
         style="fill:#fbcf93;stroke-width:0.999998"
         d="m 156.14983,166.56549 c -0.3072,-0.24885 -0.36974,-0.48535 -0.36974,-1.39842 0,-3.23528 -0.68211,-7.00672 -1.83315,-10.13553 -0.3325,-0.90383 -1.53179,-3.43256 -1.69034,-3.56416 -0.0706,-0.0585 -0.39287,-0.0316 -1.02032,0.0854 -3.51949,0.65601 -7.65008,0.61286 -12.1672,-0.12709 -1.75326,-0.28721 -1.87503,-0.32497 -1.99695,-0.61932 -0.0831,-0.20053 -0.0774,-0.29111 0.0314,-0.50144 0.073,-0.14118 0.20844,-0.28071 0.30095,-0.31008 0.0925,-0.0294 0.693,0.0414 1.33443,0.15733 4.60177,0.83146 8.41693,0.94604 11.6521,0.34996 0.59833,-0.11024 1.10377,-0.21633 1.1232,-0.23575 0.11607,-0.11608 -1.71047,-2.38948 -2.65862,-3.30904 l -0.42469,-0.41189 -0.96089,0.1987 c -1.26403,0.26139 -3.4474,0.28104 -4.55921,0.041 -0.81874,-0.17675 -1.95844,-0.56262 -2.58233,-0.8743 -2.80507,-1.40134 -4.82699,-4.23404 -5.38622,-7.5461 -0.12887,-0.76327 -0.1252,-2.45397 0.007,-3.22988 0.63338,-3.71674 3.40069,-6.78503 7.36348,-8.16439 1.51011,-0.52564 2.38663,-0.67164 4.06936,-0.67783 1.60694,-0.006 2.18596,0.0736 3.39974,0.46664 5.06096,1.63897 8.00747,7.20127 6.5399,12.34574 -0.74652,2.61689 -2.64522,4.9045 -5.24854,6.32357 l -0.71737,0.39103 0.57729,0.60774 c 0.6409,0.67469 1.3685,1.60952 2.05104,2.63516 0.24791,0.37254 0.45856,0.68771 0.46813,0.70039 0.0414,0.055 1.68425,-0.62166 2.5028,-1.03089 1.64593,-0.82287 3.06531,-1.89266 4.344,-3.27409 0.73759,-0.79685 1.21641,-1.46756 1.70969,-2.39483 0.49944,-0.93885 0.77716,-1.09965 1.2529,-0.72543 0.2938,0.2311 0.28211,0.3882 -0.0832,1.1178 -0.54737,1.09333 -1.77516,2.72825 -2.75594,3.6698 -1.44535,1.38754 -3.54849,2.68955 -5.53147,3.42441 -0.4191,0.15531 -0.77195,0.2879 -0.78413,0.29463 -0.0122,0.007 0.26097,0.59919 0.60698,1.31656 1.74656,3.62115 2.6891,7.70255 2.81717,12.19902 l 0.0523,1.83537 -0.26013,0.26013 c -0.21122,0.21123 -0.329,0.25978 -0.62648,0.25825 -0.21854,-0.001 -0.43921,-0.0609 -0.54694,-0.14817 z m -8.66707,-23.39 c 2.35713,-0.64841 4.15786,-2.45878 4.83971,-4.86561 0.15304,-0.54024 0.19188,-0.89156 0.19188,-1.73567 0,-1.2769 -0.17962,-2.00763 -0.77906,-3.16922 -0.3188,-0.6178 -0.55372,-0.92652 -1.20253,-1.5804 -0.71383,-0.7194 -0.90832,-0.86265 -1.69533,-1.24862 -1.09093,-0.53502 -1.65414,-0.68769 -2.76822,-0.75037 -2.68941,-0.15132 -5.21543,1.35429 -6.42173,3.82761 -0.5123,1.05036 -0.66476,1.72868 -0.65655,2.921 0.0269,3.91533 3.1917,6.99206 7.01016,6.81518 0.47006,-0.0218 1.12913,-0.11692 1.48167,-0.2139 z"
         id="path1592"
         sodipodi:nodetypes="sssccsccccscscsssscsccsscsscsssscssccscscsssssssssccs" /><path
         style="fill:#f1a4c7;stroke-width:0.999998"
         d="m 100.98101,144.13382 c -0.4039,-5.38838 -0.71675,-9.81467 -0.69523,-9.83619 0.0494,-0.0494 4.52246,-0.38044 4.55931,-0.33745 0.0149,0.0174 1.73215,2.41295 3.81601,5.32336 2.08386,2.91042 3.82197,5.32721 3.86245,5.37064 0.0431,0.0462 1.2837,-2.36682 2.98956,-5.81467 l 2.91596,-5.89364 0.36634,-0.047 c 0.58829,-0.0754 4.22636,-0.32514 4.25314,-0.29194 0.0433,0.0537 1.51921,19.54454 1.48258,19.57911 -0.0607,0.0573 -4.99098,0.41575 -5.0403,0.36644 -0.0257,-0.0257 -0.21491,-2.174 -0.42048,-4.77401 -0.20558,-2.60001 -0.39711,-4.89874 -0.42564,-5.10829 l -0.0519,-0.381 -2.1865,4.37008 -2.1865,4.37009 -0.70404,0.0561 c -0.38723,0.0308 -0.9517,0.0757 -1.25439,0.0997 l -0.55033,0.0436 -2.74328,-3.81652 c -1.50881,-2.09908 -2.77739,-3.83759 -2.81907,-3.86335 -0.0431,-0.0266 -0.0547,0.13 -0.0271,0.36274 0.1114,0.93636 0.7235,9.53702 0.68172,9.57881 -0.0322,0.0322 -3.9379,0.3712 -5.04318,0.43773 -0.0247,0.001 -0.37532,-4.40598 -0.77922,-9.79436 z m 41.20476,-3.94011 -0.24868,-0.27517 0.27517,0.24868 c 0.2565,0.2318 0.31409,0.30166 0.24867,0.30166 -0.0146,0 -0.13839,-0.12383 -0.27516,-0.27517 z m 0.17466,-7.34483 c 0.0843,-0.0931 0.17229,-0.16934 0.19558,-0.16934 0.0233,0 -0.0266,0.0762 -0.11092,0.16934 -0.0843,0.0931 -0.17229,0.16933 -0.19558,0.16933 -0.0233,0 0.0266,-0.0762 0.11092,-0.16933 z"
         id="path1590" /><path
         style="fill:#96d1d6;stroke-width:0.999998"
         d="m 78.500719,152.06784 c -2.500606,-0.26173 -4.595566,-1.08333 -6.169358,-2.4195 -0.952961,-0.80908 -1.860327,-2.30853 -2.250162,-3.71846 -0.166004,-0.60039 -0.18717,-0.87931 -0.186324,-2.45534 l 9.57e-4,-1.778 0.905618,-5.49676 c 0.49809,-3.02322 0.922531,-5.51368 0.943201,-5.53435 0.0408,-0.0408 5.388259,0.80871 5.444468,0.86492 0.01881,0.0188 -0.36626,2.52345 -0.855722,5.56587 -0.489463,3.04241 -0.912235,5.76026 -0.939494,6.03966 -0.178288,1.82748 0.623462,3.40802 2.010422,3.96326 1.627353,0.65147 3.228115,0.40571 4.168244,-0.63994 0.791716,-0.88058 1.031651,-1.62309 1.563232,-4.83767 0.230138,-1.39169 0.431181,-2.5431 0.446761,-2.55868 0.01558,-0.0156 0.215967,0.12673 0.445303,0.31624 1.199541,0.99124 2.844077,1.30195 4.268494,0.80645 0.346829,-0.12064 0.639651,-0.2103 0.650715,-0.19924 0.04903,0.049 -0.755868,4.83958 -0.935234,5.56629 -0.859296,3.48143 -3.052041,5.72294 -6.239832,6.37858 -0.800999,0.16475 -2.374842,0.2305 -3.271286,0.13667 z"
         id="path1588" /><path
         style="fill:#9b99ca;stroke-width:0.999998"
         d="m 51.70545,145.05452 c -1.337769,-0.54302 -2.433144,-1.02561 -2.434166,-1.07241 -0.001,-0.0468 0.62845,-1.64344 1.398831,-3.54808 0.77038,-1.90463 1.370455,-3.49197 1.3335,-3.52742 -0.0672,-0.0645 -6.652237,-2.74937 -6.872527,-2.80213 -0.082,-0.0196 -0.53483,1.00797 -1.524,3.45842 -0.774033,1.9175 -1.433185,3.51181 -1.464782,3.5429 -0.04525,0.0445 -5.011793,-1.91028 -5.114599,-2.01308 -0.01445,-0.0145 1.632734,-4.12642 3.660416,-9.13769 l 3.686695,-9.11142 2.383802,0.96464 c 1.311091,0.53055 2.467525,1.00115 2.569853,1.04579 0.182162,0.0795 0.157108,0.15279 -1.198292,3.50726 l -1.384343,3.4261 2.298959,0.93083 c 4.0203,1.62779 4.718466,1.89836 4.768737,1.84809 0.02702,-0.027 0.652407,-1.54141 1.389747,-3.3653 0.737341,-1.8239 1.359511,-3.33507 1.382601,-3.35816 0.07281,-0.0728 5.087208,1.9727 5.087208,2.07521 0,0.0537 -1.6383,4.15602 -3.640667,9.1162 -2.60041,6.44163 -3.676955,9.01695 -3.767667,9.01304 -0.06985,-0.003 -1.221538,-0.44977 -2.559306,-0.99279 z m 93.42942,-3.45898 c 0.0824,-0.0215 0.19668,-0.0201 0.254,0.003 0.0573,0.0232 -0.0101,0.0408 -0.14978,0.039 -0.1397,-0.002 -0.1866,-0.0207 -0.10422,-0.0422 z m 1.016,0 c 0.0824,-0.0215 0.19668,-0.0201 0.254,0.003 0.0573,0.0232 -0.0101,0.0408 -0.14978,0.039 -0.1397,-0.002 -0.18659,-0.0207 -0.10422,-0.0422 z m 3.10989,-1.423 c 0.10936,-0.11641 0.2179,-0.21166 0.24118,-0.21166 0.0233,0 -0.0471,0.0952 -0.15651,0.21166 -0.10937,0.11642 -0.2179,0.21167 -0.24119,0.21167 -0.0233,0 0.0471,-0.0952 0.15652,-0.21167 z m -62.546339,-1.54242 c 0.128699,-0.0195 0.319199,-0.0189 0.423333,0.001 0.104135,0.0201 -0.0012,0.036 -0.233997,0.0354 -0.232833,-6.8e-4 -0.318034,-0.0171 -0.189336,-0.0365 z m 1.755669,-0.47921 c 0,-0.0176 0.06668,-0.0843 0.148167,-0.14817 0.134286,-0.10531 0.137281,-0.10232 0.03197,0.032 -0.110606,0.14103 -0.180134,0.18588 -0.180134,0.1162 z m -3.5668,-0.28553 c -0.105314,-0.13429 -0.102319,-0.13728 0.03197,-0.032 0.141033,0.11061 0.185884,0.18013 0.1162,0.18013 -0.01758,0 -0.08426,-0.0667 -0.148167,-0.14816 z m 65.81017,-0.6985 c 0,-0.11642 0.0192,-0.16405 0.0427,-0.10584 0.0235,0.0582 0.0235,0.15346 0,0.21167 -0.0235,0.0582 -0.0427,0.0106 -0.0427,-0.10583 z m -9.99067,-0.254 c 0,-0.11642 0.0192,-0.16404 0.0427,-0.10584 0.0235,0.0582 0.0235,0.15346 0,0.21167 -0.0235,0.0582 -0.0427,0.0106 -0.0427,-0.10583 z m -51.145349,-0.72673 c 0.0041,-0.0986 0.02413,-0.11869 0.05115,-0.0512 0.02446,0.0611 0.02145,0.13414 -0.0067,0.16228 -0.02813,0.0281 -0.04815,-0.0219 -0.04447,-0.11113 z m 51.148489,-0.0776 c 0.002,-0.1397 0.0207,-0.1866 0.0422,-0.10422 0.0215,0.0824 0.0201,0.19668 -0.003,0.254 -0.0232,0.0573 -0.0408,-0.0101 -0.039,-0.14978 z m 9.98753,-0.127 c 0,-0.11641 0.0192,-0.16404 0.0427,-0.10583 0.0235,0.0582 0.0235,0.15346 0,0.21167 -0.0235,0.0582 -0.0427,0.0106 -0.0427,-0.10584 z m -66.626394,-0.16933 c 0,-0.16298 0.01743,-0.22966 0.03872,-0.14817 0.02129,0.0815 0.02129,0.21484 0,0.29634 -0.0213,0.0815 -0.03872,0.0148 -0.03872,-0.14817 z m 59.908484,-0.1425 c 0.0611,-0.0245 0.13415,-0.0215 0.16228,0.007 0.0281,0.0281 -0.0219,0.0481 -0.11112,0.0445 -0.0986,-0.004 -0.1187,-0.0241 -0.0512,-0.0512 z m -54.418109,-0.24556 c 0.0041,-0.0986 0.02413,-0.11869 0.05115,-0.0512 0.02446,0.0611 0.02145,0.13414 -0.0067,0.16228 -0.02813,0.0281 -0.04815,-0.0219 -0.04447,-0.11113 z m -3.753184,-0.0914 c 0.05821,-0.0235 0.153458,-0.0235 0.211667,0 0.05821,0.0235 0.01058,0.0427 -0.105834,0.0427 -0.116416,0 -0.164041,-0.0192 -0.105833,-0.0427 z m -1.665482,-0.16265 c 0.0041,-0.0986 0.02412,-0.11869 0.05115,-0.0512 0.02446,0.0611 0.02145,0.13414 -0.0067,0.16228 -0.02813,0.0281 -0.04815,-0.0219 -0.04447,-0.11113 z m 2.37735,-0.45861 c 0,-0.11641 0.01922,-0.16404 0.0427,-0.10583 0.02349,0.0582 0.02349,0.15346 0,0.21167 -0.02349,0.0582 -0.0427,0.0106 -0.0427,-0.10584 z m -1.071701,-0.42333 c 0.08428,-0.0931 0.172295,-0.16933 0.195578,-0.16933 0.02328,0 -0.02663,0.0762 -0.110912,0.16933 -0.08429,0.0931 -0.172295,0.16933 -0.195578,0.16933 -0.02328,0 0.02663,-0.0762 0.110912,-0.16933 z m 59.654346,-0.0494 c 0.004,-0.0986 0.0241,-0.11869 0.0512,-0.0512 0.0245,0.0611 0.0215,0.13414 -0.007,0.16228 -0.0281,0.0281 -0.0481,-0.0219 -0.0445,-0.11113 z m -56.275724,-0.31044 -0.161289,-0.1905 0.1905,0.16129 c 0.179023,0.15157 0.229044,0.21971 0.161289,0.21971 -0.01607,0 -0.101791,-0.0857 -0.1905,-0.1905 z m 52.713044,-0.18014 c 0,-0.0176 0.0667,-0.0842 0.14817,-0.14816 0.13429,-0.10532 0.13728,-0.10232 0.032,0.032 -0.11061,0.14104 -0.18014,0.18589 -0.18014,0.1162 z m 2.27013,-0.36453 c 0.0611,-0.0245 0.13414,-0.0215 0.16228,0.007 0.0281,0.0281 -0.0219,0.0481 -0.11113,0.0445 -0.0986,-0.004 -0.11869,-0.0241 -0.0512,-0.0512 z m 0.33866,0 c 0.0611,-0.0245 0.13415,-0.0215 0.16228,0.007 0.0281,0.0281 -0.0219,0.0481 -0.11112,0.0445 -0.0986,-0.004 -0.1187,-0.0241 -0.0512,-0.0512 z m 5.2995,-0.13267 -0.16129,-0.1905 0.1905,0.16129 c 0.17902,0.15157 0.22904,0.21971 0.16129,0.21971 -0.0161,0 -0.10179,-0.0857 -0.1905,-0.1905 z m -7.48495,-0.0108 c 0,-0.0176 0.0667,-0.0842 0.14816,-0.14816 0.13429,-0.10532 0.13728,-0.10232 0.032,0.032 -0.11061,0.14104 -0.18013,0.18589 -0.18013,0.1162 z m 7.06162,-0.41253 -0.16129,-0.1905 0.1905,0.16129 c 0.17902,0.15157 0.22904,0.21971 0.16129,0.21971 -0.0161,0 -0.1018,-0.0857 -0.1905,-0.1905 z m -4.11417,-1.222 c 0.0611,-0.0245 0.13415,-0.0214 0.16228,0.007 0.0281,0.0281 -0.0219,0.0481 -0.11112,0.0445 -0.0986,-0.004 -0.1187,-0.0241 -0.0512,-0.0512 z m 1.43405,0.002 c 0.0582,-0.0235 0.15345,-0.0235 0.21166,0 0.0582,0.0235 0.0106,0.0427 -0.10583,0.0427 -0.11642,0 -0.16404,-0.0192 -0.10583,-0.0427 z"
         id="path1586" /><path
         style="fill:#1c1c1a;stroke-width:0.999998"
         d="m 145.02743,141.56669 c -0.70279,-0.11056 -1.41394,-0.38404 -2.01217,-0.77381 -2.10435,-1.37103 -2.86554,-4.31274 -1.69162,-6.53744 0.35782,-0.67811 1.38726,-1.70612 2.06853,-2.06565 0.64297,-0.33932 1.67204,-0.61141 2.30497,-0.60944 1.4016,0.004 2.92764,0.69142 3.81643,1.71827 1.15006,1.32872 1.53576,3.22133 0.98483,4.83262 -0.28356,0.82933 -0.54888,1.28751 -1.08564,1.87481 -1.06893,1.16959 -2.84754,1.80255 -4.38533,1.56064 z m -0.3558,-6.06372 c 0.50096,-0.31748 0.67128,-1.08529 0.35446,-1.59792 -0.5881,-0.95157 -2.11533,-0.52493 -2.11533,0.59093 0,0.9374 0.98333,1.49974 1.76087,1.00699 z m -58.625994,3.01506 c -0.41604,-0.12689 -1.057009,-0.59646 -1.360833,-0.99695 -0.556434,-0.73345 -0.685814,-1.95127 -0.299972,-2.82353 0.230653,-0.52143 0.776202,-1.05286 1.363399,-1.32811 1.035484,-0.48539 2.399394,-0.19394 3.185834,0.68077 1.183497,1.31633 0.734392,3.52965 -0.876531,4.31978 -0.43603,0.21387 -1.531721,0.29449 -2.011897,0.14804 z m 0.3143,-3.37664 c 0.299241,-0.29924 0.312161,-0.51455 0.04922,-0.82024 -0.38964,-0.45298 -1.073271,-0.20784 -1.090296,0.39097 -0.0059,0.20739 0.05254,0.33372 0.221666,0.4792 0.304865,0.26223 0.520378,0.2491 0.81941,-0.0499 z"
         id="path1584" /></g></g></svg>
